<?xml version="1.0" encoding="UTF-8"?><svg id="a" xmlns="http://www.w3.org/2000/svg" viewBox="0 0 133 37"><path d="m76.12,9.24h4.96s-2.68,13.23-2.68,13.23l5.52-.02,2.69-13.2h6.18c-.9,4.4-1.8,8.81-2.7,13.22h5.42s2.66-13.22,2.66-13.22l5.06-.02.93-4.57h-27.1s-.93,4.58-.93,4.58h0Z" style="fill:#dc002e; fill-rule:evenodd; stroke-width:0px;"/><path d="m102.53,22.46h14.97c.32-1.64.64-3.07.93-4.59h-9.49s.46-2.23.46-2.23h8.51s.85-4.18.85-4.18h-8.51s.45-2.23.45-2.23h9.49c.32-1.55.6-2.95.94-4.59h-14.97s-3.61,17.81-3.61,17.81h0Z" style="fill:#dc002e; fill-rule:evenodd; stroke-width:0px;"/><polygon points="36.62 22.46 42.07 22.45 43.5 15.37 48.49 15.37 47.04 22.47 52.5 22.47 56.13 4.65 50.67 4.66 49.42 10.78 44.39 10.77 45.69 4.65 40.24 4.66 36.62 22.46 36.62 22.46" style="fill:#dc002e; fill-rule:evenodd; stroke-width:0px;"/><path d="m2.83,10.64c0,4.94,8.49,4.23,8.49,6.54v.42c0,1.79-5.01,2.54-5.01-.42v-.7H1.02v1.53c.06,1.35.93,2.67,2.09,3.34,3.66,2.98,12.97,2.34,13.5-4.59v-.42c0-5.57-8.49-4.71-8.49-6.54v-.56c0-1.56,4.18-1.55,4.18.14v.7h5.15v-1.11c0-3.14-3.54-4.73-6.96-4.73-4,0-7.86,1.58-7.65,6.4h0Z" style="fill:#dc002e; fill-rule:evenodd; stroke-width:0px;"/><path d="m18.69,14.67v.14c0,4.59,2.46,8.07,6.96,8.07,2.6.04,4.86-.45,6.98-1.92,1.24-.98,2.73-3.32,2.9-5.32h-5.15c-.05.27-.6,2.78-3.2,2.78-5,0-3.29-9.87.83-9.87,2.2.05,2.42.77,2.78,2.77h5.15v-.84c0-4.84-4.43-6.39-8.35-6.26-5.29,0-8.91,4.98-8.91,10.44h0Z" style="fill:#dc002e; fill-rule:evenodd; stroke-width:0px;"/><path d="m63.78,22.89c-9.76-.8-8.18-18.75,3.67-18.59,10.5.14,8.77,19.49-3.67,18.59h0Zm.83-4.45c4.27.56,6.79-9.2,2.04-9.7-4.36-.45-6.34,9.13-2.04,9.7h0Z" style="fill:#dc002e; fill-rule:evenodd; stroke-width:0px;"/><path d="m37.96,31.41c-.3.26-.59.45-.87.57s-.58.18-.89.18c-.47,0-.85-.14-1.14-.41-.29-.27-.43-.63-.43-1.06,0-.29.06-.54.19-.76.13-.22.3-.4.52-.53.21-.13.48-.23.79-.29.19-.04.56-.07,1.11-.09.54-.02.93-.08,1.17-.17.07-.24.1-.43.1-.59,0-.2-.07-.36-.22-.47-.2-.16-.5-.24-.88-.24-.36,0-.66.08-.89.24-.23.16-.4.39-.5.69l-.88-.08c.18-.5.46-.89.85-1.16.39-.26.88-.4,1.47-.4.63,0,1.13.15,1.49.45.28.22.42.51.42.87,0,.27-.04.58-.12.94l-.28,1.26c-.09.4-.13.73-.13.98,0,.16.04.39.11.69h-.88c-.05-.17-.08-.38-.1-.63h0Zm.32-1.94c-.12.05-.25.09-.39.11-.14.03-.37.05-.7.08-.5.04-.86.1-1.07.17-.21.07-.36.18-.47.33-.11.15-.16.31-.16.5,0,.24.08.44.25.6.17.16.4.23.72.23.29,0,.56-.08.83-.23.26-.15.47-.36.63-.64.15-.27.27-.66.36-1.16h0Zm5.51,1.65c-.61.69-1.23,1.03-1.87,1.03-.39,0-.71-.11-.95-.33-.24-.23-.36-.5-.36-.83,0-.21.05-.58.16-1.1l.61-2.94h.87l-.68,3.25c-.06.27-.09.48-.09.63,0,.19.06.34.18.45.12.11.29.16.51.16.24,0,.48-.06.71-.18.23-.12.43-.28.6-.48.17-.2.3-.44.41-.71.07-.18.15-.48.24-.92l.46-2.2h.87l-1.06,5.08h-.8l.19-.92h0Zm4.34.22l-.14.71c-.21.05-.41.08-.6.08-.34,0-.62-.09-.82-.26-.15-.13-.23-.3-.23-.52,0-.11.04-.37.12-.77l.62-2.95h-.68l.14-.67h.69l.34-1.54h.83s-.31,1.54-.31,1.54h.85l-.14.67h-.85l-.59,2.81c-.07.36-.11.57-.11.64,0,.1.03.18.09.23.06.05.16.08.29.08.19,0,.36-.02.51-.06h0Zm1.19-1.23c0-.99.29-1.81.88-2.46.48-.54,1.11-.81,1.89-.81.61,0,1.11.19,1.48.58.37.38.56.9.56,1.55,0,.58-.12,1.13-.35,1.63-.24.5-.57.89-1.01,1.16-.44.27-.89.4-1.38.4-.4,0-.75-.08-1.08-.25-.32-.17-.57-.41-.74-.72-.17-.31-.26-.67-.26-1.07h0Zm.87-.08c0,.48.12.84.34,1.09.23.25.52.37.88.37.19,0,.37-.04.55-.11.18-.07.35-.19.51-.34.16-.16.29-.33.4-.53.11-.2.2-.41.27-.63.1-.32.15-.62.15-.91,0-.46-.12-.82-.35-1.07-.23-.25-.52-.38-.87-.38-.27,0-.52.06-.74.19-.22.13-.43.32-.61.57-.18.25-.31.54-.4.87-.09.33-.13.62-.13.88h0Zm4.76,2.02l1.06-5.08h.87l-.18.83c.32-.36.61-.61.86-.75.25-.14.53-.21.83-.21.31,0,.58.08.79.25.21.17.35.4.42.7.26-.32.53-.56.81-.71.29-.16.59-.24.9-.24.42,0,.74.1.95.3.21.2.32.48.32.85,0,.16-.04.42-.11.78l-.68,3.28h-.87l.7-3.36c.06-.28.09-.47.09-.59,0-.17-.05-.3-.16-.39-.1-.1-.25-.15-.44-.15-.26,0-.52.08-.79.23-.27.16-.48.36-.62.62-.15.25-.28.64-.39,1.17l-.52,2.47h-.87l.72-3.43c.05-.23.08-.4.08-.5,0-.17-.05-.3-.16-.4-.1-.1-.24-.15-.4-.15-.25,0-.5.08-.77.23-.27.16-.49.38-.66.65-.17.28-.31.68-.42,1.19l-.5,2.41h-.87Zm8.66-1.93c0-.99.29-1.81.88-2.46.48-.54,1.11-.81,1.9-.81.61,0,1.11.19,1.48.58.37.38.56.9.56,1.55,0,.58-.12,1.13-.35,1.63-.24.5-.57.89-1.01,1.16-.44.27-.89.4-1.38.4-.4,0-.75-.08-1.08-.25-.32-.17-.57-.41-.74-.72-.17-.31-.26-.67-.26-1.07h0Zm.87-.08c0,.48.12.84.35,1.09.23.25.52.37.88.37.19,0,.37-.04.55-.11.18-.07.35-.19.51-.34.15-.16.29-.33.4-.53.11-.2.2-.41.27-.63.1-.32.15-.62.15-.91,0-.46-.12-.82-.35-1.07-.23-.25-.52-.38-.87-.38-.27,0-.52.06-.74.19-.22.13-.43.32-.61.57-.18.25-.31.54-.4.87-.09.33-.13.62-.13.88h0Zm6.79,1.31l-.14.71c-.21.05-.41.08-.6.08-.34,0-.62-.09-.82-.26-.16-.13-.23-.3-.23-.52,0-.11.04-.37.12-.77l.62-2.95h-.68l.14-.67h.68l.34-1.54h.83s-.3,1.54-.3,1.54h.85l-.14.67h-.85l-.59,2.81c-.07.36-.11.57-.11.64,0,.1.03.18.09.23.06.05.15.08.29.08.19,0,.36-.02.51-.06h0Zm2.27-5.33l.21-.98h.86l-.2.98h-.86Zm-1.26,6.04l1.06-5.08h.86l-1.06,5.08h-.87Zm3.83,0l-.83-5.08h.84l.44,2.8c.05.31.11.8.18,1.5.17-.36.38-.78.64-1.24l1.7-3.06h.92l-2.91,5.08h-.96Zm7.69-1.73l.84.09c-.12.42-.4.81-.84,1.19-.44.37-.96.56-1.56.56-.38,0-.72-.08-1.03-.26-.32-.18-.56-.43-.72-.76-.16-.33-.24-.71-.24-1.13,0-.56.13-1.09.38-1.62.26-.52.59-.91,1-1.16.41-.25.85-.38,1.33-.38.6,0,1.09.19,1.45.57.36.38.54.89.54,1.54,0,.25-.02.51-.07.77h-3.74c-.01.1-.02.19-.02.27,0,.48.11.84.33,1.09.22.25.49.38.8.38.3,0,.59-.1.87-.29.29-.2.51-.48.67-.84h0Zm-2.52-1.26h2.85c0-.09,0-.15,0-.19,0-.43-.11-.77-.33-1-.22-.23-.5-.35-.84-.35-.37,0-.71.13-1.01.38-.3.25-.53.64-.68,1.16h0Zm7.42,2.99l.92-4.41h-.77l.14-.67h.78l.15-.72c.08-.36.16-.62.24-.78.08-.16.21-.29.4-.4.18-.1.43-.16.75-.16.22,0,.54.05.96.14l-.16.76c-.29-.08-.54-.11-.74-.11-.17,0-.3.04-.38.13-.09.09-.16.29-.23.6l-.11.55h.96l-.14.67h-.96l-.92,4.41h-.87Zm6.37-.63c-.3.26-.59.45-.86.57-.28.12-.58.18-.89.18-.47,0-.85-.14-1.14-.41-.29-.27-.43-.63-.43-1.06,0-.29.07-.54.19-.76.13-.22.3-.4.51-.53.21-.13.48-.23.78-.29.2-.04.57-.07,1.11-.09.54-.02.93-.08,1.17-.17.07-.24.1-.43.1-.59,0-.2-.07-.36-.22-.47-.2-.16-.49-.24-.88-.24-.36,0-.66.08-.89.24-.23.16-.4.39-.51.69l-.88-.08c.18-.5.46-.89.85-1.16.39-.26.88-.4,1.47-.4.63,0,1.13.15,1.49.45.28.22.42.51.42.87,0,.27-.04.58-.12.94l-.28,1.26c-.09.4-.13.73-.13.98,0,.16.04.39.11.69h-.88c-.05-.17-.08-.38-.1-.63h0Zm.32-1.94c-.12.05-.25.09-.39.11-.14.03-.37.05-.7.08-.5.04-.86.1-1.07.17-.21.07-.36.18-.47.33-.1.15-.16.31-.16.5,0,.24.08.44.25.6.17.16.41.23.71.23.29,0,.56-.08.83-.23.26-.15.47-.36.63-.64.15-.27.27-.66.36-1.16h0Zm2.12.84l.86-.05c0,.25.04.46.11.64.08.17.22.32.42.43.21.11.45.17.72.17.38,0,.67-.08.86-.23.19-.15.29-.34.29-.54,0-.15-.06-.29-.17-.42-.12-.13-.41-.3-.86-.49-.46-.2-.75-.33-.88-.42-.21-.13-.37-.28-.48-.46-.11-.18-.16-.38-.16-.61,0-.4.16-.75.48-1.04.32-.29.76-.43,1.34-.43.64,0,1.12.15,1.46.44.33.29.51.68.52,1.16l-.85.06c-.02-.31-.12-.55-.33-.73-.2-.18-.49-.27-.86-.27-.3,0-.53.07-.7.2-.17.14-.25.28-.25.45s.07.3.22.42c.09.08.34.21.74.38.66.29,1.08.51,1.25.68.28.26.41.59.41.97,0,.25-.08.5-.23.74-.15.24-.39.44-.71.58-.32.15-.69.21-1.12.21-.58,0-1.08-.15-1.5-.43-.41-.29-.61-.76-.58-1.41h0Zm7.18,1.03l-.14.71c-.21.05-.41.08-.6.08-.34,0-.62-.09-.82-.26-.16-.13-.23-.3-.23-.52,0-.11.04-.37.13-.77l.62-2.95h-.68l.14-.67h.69l.33-1.54h.85s-.32,1.54-.32,1.54h.85l-.14.67h-.85l-.59,2.81c-.08.36-.11.57-.11.64,0,.1.03.18.09.23.06.05.16.08.29.08.19,0,.36-.02.51-.06h0Zm4.77-1.03l.84.09c-.12.42-.4.81-.83,1.19-.44.37-.95.56-1.56.56-.38,0-.72-.08-1.04-.26-.32-.18-.55-.43-.72-.76-.16-.33-.25-.71-.25-1.13,0-.56.13-1.09.38-1.62.26-.52.59-.91,1-1.16.41-.25.85-.38,1.33-.38.61,0,1.09.19,1.45.57.36.38.54.89.54,1.54,0,.25-.02.51-.07.77h-3.74c-.01.1-.02.19-.02.27,0,.48.11.84.33,1.09.22.25.48.38.8.38.3,0,.59-.1.87-.29.29-.2.51-.48.67-.84h0Zm-2.52-1.26h2.85c0-.09,0-.15,0-.19,0-.43-.11-.77-.33-1-.21-.23-.5-.35-.84-.35-.37,0-.71.13-1.01.38-.3.25-.53.64-.68,1.16h0Zm4.57,2.99l1.06-5.08h.79l-.19.89c.34-.35.66-.6.96-.76.3-.16.6-.24.91-.24.41,0,.73.11.97.33.24.22.35.52.35.9,0,.19-.04.49-.12.89l-.65,3.08h-.87l.68-3.22c.07-.31.1-.54.1-.69,0-.17-.06-.31-.18-.41-.12-.11-.28-.16-.5-.16-.44,0-.84.16-1.18.48-.35.32-.6.87-.76,1.64l-.49,2.36h-.87Zm9.52-1.73l.84.09c-.12.42-.4.81-.83,1.19-.44.37-.95.56-1.56.56-.38,0-.72-.08-1.04-.26-.32-.18-.56-.43-.72-.76-.17-.33-.25-.71-.25-1.13,0-.56.13-1.09.38-1.62.26-.52.59-.91,1-1.16.41-.25.85-.38,1.33-.38.61,0,1.09.19,1.45.57.36.38.54.89.54,1.54,0,.25-.02.51-.07.77h-3.74c0,.1-.02.19-.02.27,0,.48.11.84.33,1.09.22.25.49.38.8.38.3,0,.58-.1.87-.29.29-.2.51-.48.67-.84h0Zm-2.52-1.26h2.85c0-.09,0-.15,0-.19,0-.43-.11-.77-.33-1-.21-.23-.5-.35-.84-.35-.37,0-.71.13-1.01.38-.3.25-.53.64-.68,1.16h0Zm4.57,2.99l1.06-5.08h.76l-.21,1.04c.26-.39.52-.68.77-.87.25-.19.51-.28.77-.28.17,0,.38.06.64.19l-.35.8c-.15-.11-.32-.16-.49-.16-.3,0-.62.17-.93.51-.32.34-.57.95-.75,1.82l-.43,2.04h-.82Zm3.68-1.74l.87-.05c0,.25.04.46.11.64.08.17.22.32.42.43s.45.17.72.17c.38,0,.67-.08.86-.23.19-.15.29-.34.29-.54,0-.15-.06-.29-.17-.42-.12-.13-.4-.3-.86-.49-.46-.2-.75-.33-.88-.42-.21-.13-.37-.28-.48-.46-.11-.18-.16-.38-.16-.61,0-.4.16-.75.48-1.04.32-.29.76-.43,1.34-.43.64,0,1.12.15,1.45.44.33.29.51.68.52,1.16l-.85.06c-.01-.31-.12-.55-.33-.73-.2-.18-.49-.27-.87-.27-.3,0-.53.07-.7.2-.17.14-.25.28-.25.45s.07.3.22.42c.09.08.34.21.74.38.66.29,1.08.51,1.25.68.28.26.41.59.41.97,0,.25-.08.5-.23.74-.16.24-.39.44-.71.58-.32.15-.69.21-1.12.21-.59,0-1.09-.15-1.5-.43-.41-.29-.61-.76-.58-1.41h0Z" style="fill:#1a171b; fill-rule:evenodd; stroke-width:0px;"/><path d="m129.46,6.3c0-.06,0-.11-.03-.15-.02-.04-.06-.07-.11-.1-.04-.02-.08-.03-.13-.03-.05,0-.11,0-.17,0h-.2v.61h.17c.09,0,.16,0,.22-.01.06,0,.11-.03.15-.06.04-.03.07-.07.08-.1.02-.04.02-.09.02-.15h0Zm.86,1.57h-.67l-.58-.83h-.25v.83h-.54v-2.27h.92c.12,0,.23,0,.32.02.09.01.17.05.25.1s.14.12.19.2c.05.08.07.18.07.3,0,.17-.04.3-.11.41-.07.11-.18.19-.31.26l.71.97h0Z" style="fill:#1a171b; fill-rule:evenodd; stroke-width:0px;"/><path d="m129.16,4.7c.56,0,1.07.23,1.44.59.37.37.6.88.6,1.44s-.23,1.07-.6,1.44c-.37.37-.87.59-1.44.59s-1.07-.23-1.44-.59c-.37-.37-.59-.88-.59-1.44s.23-1.07.59-1.44c.37-.37.88-.59,1.44-.59h0Zm1.22.81c-.31-.31-.74-.5-1.22-.5s-.9.19-1.21.5c-.31.31-.5.74-.5,1.22s.19.91.5,1.22c.31.31.74.5,1.21.5s.91-.19,1.22-.5c.31-.31.5-.74.5-1.22s-.19-.9-.5-1.22h0Z" style="fill:#1a171b; fill-rule:evenodd; stroke-width:0px;"/></svg>